<svg aria-hidden="true" style="position: absolute; width: 0; height: 0; overflow: hidden;" version="1.1" xmlns="http://www.w3.org/2000/svg" xmlns:xlink="http://www.w3.org/1999/xlink">
<defs>
<symbol id="twitter" viewBox="0 0 44 32">
<path d="M8.813 3.728l10.125 13.538-10.189 11.007h2.293l8.92-9.637 7.207 9.637h7.804l-10.695-14.3 9.484-10.245h-2.293l-8.215 8.875-6.638-8.875h-7.804zM12.185 5.417h3.585l15.831 21.166h-3.585l-15.831-21.166z"></path>
</symbol>
<symbol id="icon-Facebook" viewBox="0 0 32 32">
<path stroke-linejoin="round" stroke-linecap="round" stroke-miterlimit="4" stroke-width="2.6667" d="M9.333 13.333v5.333h4v9.333h5.333v-9.333h4l1.333-5.333h-5.333v-2.667c0-0.354 0.141-0.693 0.391-0.943s0.589-0.391 0.943-0.391h4v-5.333h-4c-1.768 0-3.464 0.702-4.714 1.953s-1.953 2.946-1.953 4.714v2.667h-4z"></path>
</symbol>
<symbol id="icon-YouTube" viewBox="0 0 32 32">
<path stroke-linejoin="miter" stroke-linecap="butt" stroke-miterlimit="4" stroke-width="2.6667" d="M5.891 23.48l-0.003-0.001c-0.672-0.181-1.2-0.698-1.397-1.363-0.353-2.016-0.524-4.060-0.51-6.107h0l-0-0.015c-0.009-2.050 0.166-4.096 0.523-6.114 0.204-0.671 0.733-1.196 1.407-1.394 0.377-0.096 1.137-0.19 2.178-0.264 1.018-0.073 2.203-0.122 3.348-0.155 2.287-0.066 4.368-0.066 4.535-0.066l0.056 0 0.075 0c0.065 0 0.158 0.001 0.276 0.001 0.236 0.002 0.573 0.004 0.98 0.009 0.816 0.010 1.916 0.030 3.075 0.067 1.162 0.037 2.373 0.091 3.414 0.171 1.079 0.082 1.863 0.183 2.239 0.286l0.004 0.001c0.672 0.182 1.2 0.699 1.398 1.365 0.364 2.021 0.535 4.071 0.51 6.124l-0 0.011v0.011c0.009 2.048-0.167 4.092-0.525 6.108-0.2 0.664-0.728 1.181-1.4 1.363-0.371 0.098-1.135 0.193-2.186 0.27-1.017 0.074-2.202 0.124-3.347 0.158-2.287 0.068-4.368 0.069-4.534 0.069h-0.054l-0.075-0c-0.065-0-0.157-0.001-0.275-0.001-0.236-0.002-0.571-0.004-0.978-0.009-0.814-0.010-1.912-0.030-3.070-0.067-1.16-0.037-2.371-0.091-3.413-0.171-1.079-0.082-1.868-0.183-2.251-0.287zM14.007 10.851l-1.997-1.151-0.002 2.305-0.007 8-0.002 2.308 10.956-6.306-8.949-5.156z"></path>
</symbol>
<symbol id="icon-Instagram" viewBox="0 0 32 32">
<path stroke-linejoin="round" stroke-linecap="round" stroke-miterlimit="4" stroke-width="2.6667" d="M21.333 5.333h-10.667c-2.946 0-5.333 2.388-5.333 5.333v10.667c0 2.945 2.388 5.333 5.333 5.333h10.667c2.945 0 5.333-2.388 5.333-5.333v-10.667c0-2.946-2.388-5.333-5.333-5.333z"></path>
<path stroke-linejoin="round" stroke-linecap="round" stroke-miterlimit="4" stroke-width="2.6667" d="M16 20c2.209 0 4-1.791 4-4s-1.791-4-4-4c-2.209 0-4 1.791-4 4s1.791 4 4 4z"></path>
<path stroke-linejoin="round" stroke-linecap="round" stroke-miterlimit="4" stroke-width="2.6667" d="M22 10v0.001"></path>
</symbol>
<symbol id="icon-untitled" viewBox="0 0 32 32">
<path d="M8.933 26.104h-8.279l8.715-20.044h4.793l-5.229 20.044zM26.363 26.104h-8.279l8.715-20.044h4.793l-5.229 20.044z"></path>
</symbol>
<symbol id="icon-Arrow" viewBox="0 0 32 32">
<path fill="#fff" style="fill: var(--color1, #fff)" d="M15.36 0.64c8.483 0 15.36 6.877 15.36 15.36s-6.877 15.36-15.36 15.36c-8.483 0-15.36-6.877-15.36-15.36s6.877-15.36 15.36-15.36z"></path>
<path fill="none" stroke="#000" style="stroke: var(--color2, #000)" stroke-linejoin="round" stroke-linecap="round" stroke-miterlimit="4" stroke-width="2.56" d="M8.96 22.4l12.8-12.8"></path>
<path fill="none" stroke="#000" style="stroke: var(--color2, #000)" stroke-linejoin="round" stroke-linecap="round" stroke-miterlimit="4" stroke-width="2.56" d="M21.76 21.12v-11.52h-11.52"></path>
</symbol>
<symbol id="icon-Button-with-icon" viewBox="0 0 32 32">
<path d="M16 0c8.837 0 16 7.163 16 16s-7.163 16-16 16c-8.837 0-16-7.163-16-16s7.163-16 16-16z"></path>
<path fill="none" stroke="#fff" style="stroke: var(--color1, #fff)" stroke-linejoin="round" stroke-linecap="round" stroke-miterlimit="4" stroke-width="1.6" d="M12 14.4v3.2h2.4v5.6h3.2v-5.6h2.4l0.8-3.2h-3.2v-1.6c0-0.212 0.084-0.416 0.234-0.566s0.354-0.234 0.566-0.234h2.4v-3.2h-2.4c-1.061 0-2.078 0.421-2.828 1.172s-1.172 1.768-1.172 2.828v1.6h-2.4z"></path>
</symbol>
<symbol id="icon-Call" viewBox="0 0 32 32">
<path fill="none" stroke="#fff" style="stroke: var(--color1, #fff)" stroke-linejoin="round" stroke-linecap="round" stroke-miterlimit="4" stroke-width="2.6667" d="M6.667 5.333h5.333l2.667 6.667-3.333 2c1.428 2.895 3.771 5.239 6.667 6.667l2-3.333 6.667 2.667v5.333c0 0.707-0.281 1.385-0.781 1.886s-1.178 0.781-1.886 0.781c-5.201-0.316-10.106-2.525-13.791-6.209s-5.893-8.59-6.209-13.791c0-0.707 0.281-1.386 0.781-1.886s1.178-0.781 1.886-0.781z"></path>
</symbol>
<symbol id="icon-Check" viewBox="0 0 32 32">
<path stroke-linejoin="round" stroke-linecap="round" stroke-miterlimit="4" stroke-width="1.3333" d="M12 6.667h-2.667c-0.707 0-1.386 0.281-1.886 0.781s-0.781 1.178-0.781 1.886v16c0 0.707 0.281 1.386 0.781 1.886s1.178 0.781 1.886 0.781h13.333c0.707 0 1.386-0.281 1.886-0.781s0.781-1.178 0.781-1.886v-16c0-0.707-0.281-1.386-0.781-1.886s-1.178-0.781-1.886-0.781h-2.667"></path>
<path stroke-linejoin="round" stroke-linecap="round" stroke-miterlimit="4" stroke-width="1.3333" d="M17.333 4h-2.667c-1.473 0-2.667 1.194-2.667 2.667s1.194 2.667 2.667 2.667h2.667c1.473 0 2.667-1.194 2.667-2.667s-1.194-2.667-2.667-2.667z"></path>
<path stroke-linejoin="round" stroke-linecap="round" stroke-miterlimit="4" stroke-width="1.3333" d="M12 18.667l2.667 2.667 5.333-5.333"></path>
</symbol>
<symbol id="icon-Checkbox" viewBox="0 0 32 32">
<path stroke-linejoin="round" stroke-linecap="round" stroke-miterlimit="4" stroke-width="1.3333" d="M12 14.667l4 4 10.667-10.667"></path>
<path stroke-linejoin="round" stroke-linecap="round" stroke-miterlimit="4" stroke-width="1.3333" d="M26.667 16v8c0 0.707-0.281 1.386-0.781 1.886s-1.178 0.781-1.886 0.781h-16c-0.707 0-1.386-0.281-1.886-0.781s-0.781-1.178-0.781-1.886v-16c0-0.707 0.281-1.386 0.781-1.886s1.178-0.781 1.886-0.781h12"></path>
</symbol>
<symbol id="icon-Document" viewBox="0 0 32 32">
<path stroke-linejoin="round" stroke-linecap="round" stroke-miterlimit="4" stroke-width="1.3333" d="M18.667 4v5.333c0 0.354 0.14 0.693 0.391 0.943s0.589 0.391 0.943 0.391h5.333"></path>
<path stroke-linejoin="round" stroke-linecap="round" stroke-miterlimit="4" stroke-width="1.3333" d="M22.667 28h-13.333c-0.707 0-1.386-0.281-1.886-0.781s-0.781-1.178-0.781-1.886v-18.667c0-0.707 0.281-1.386 0.781-1.886s1.178-0.781 1.886-0.781h9.333l6.667 6.667v14.667c0 0.707-0.281 1.386-0.781 1.886s-1.178 0.781-1.886 0.781z"></path>
<path stroke-linejoin="round" stroke-linecap="round" stroke-miterlimit="4" stroke-width="1.3333" d="M12 12h1.333"></path>
<path stroke-linejoin="round" stroke-linecap="round" stroke-miterlimit="4" stroke-width="1.3333" d="M12 17.333h8"></path>
<path stroke-linejoin="round" stroke-linecap="round" stroke-miterlimit="4" stroke-width="1.3333" d="M12 22.667h8"></path>
</symbol>
<symbol id="icon-Dot" viewBox="0 0 32 32">
<path fill="#fff" style="fill: var(--color1, #fff)" d="M16 0.64c8.483 0 15.36 6.877 15.36 15.36s-6.877 15.36-15.36 15.36c-8.483 0-15.36-6.877-15.36-15.36s6.877-15.36 15.36-15.36z"></path>
<path fill="#000" style="fill: var(--color2, #000)" d="M12.16 16c0-2.121 1.719-3.84 3.84-3.84s3.84 1.719 3.84 3.84c0 2.121-1.719 3.84-3.84 3.84s-3.84-1.719-3.84-3.84z"></path>
</symbol>
<symbol id="icon-down" viewBox="0 0 32 32">
<path d="M16 0c8.837 0 16 7.163 16 16s-7.163 16-16 16c-8.837 0-16-7.163-16-16s7.163-16 16-16z"></path>
<path fill="none" stroke="#fff" style="stroke: var(--color1, #fff)" stroke-linejoin="round" stroke-linecap="round" stroke-miterlimit="4" stroke-width="0.8205" d="M16 21.829v-11.658M16 21.829l5.299-4.996M16 21.829l-5.299-4.996"></path>
</symbol>
<symbol id="icon-Email" viewBox="0 0 32 32">
<path fill="none" stroke="#fff" style="stroke: var(--color1, #fff)" stroke-linejoin="round" stroke-linecap="round" stroke-miterlimit="4" stroke-width="2.6667" d="M25.333 6.667h-18.667c-1.473 0-2.667 1.194-2.667 2.667v13.333c0 1.473 1.194 2.667 2.667 2.667h18.667c1.473 0 2.667-1.194 2.667-2.667v-13.333c0-1.473-1.194-2.667-2.667-2.667z"></path>
<path fill="none" stroke="#fff" style="stroke: var(--color1, #fff)" stroke-linejoin="round" stroke-linecap="round" stroke-miterlimit="4" stroke-width="2.6667" d="M4 9.333l12 8 12-8"></path>
</symbol>
<symbol id="icon-Forward" viewBox="0 0 32 32">
<path d="M16 0.64c8.483 0 15.36 6.877 15.36 15.36s-6.877 15.36-15.36 15.36c-8.483 0-15.36-6.877-15.36-15.36s6.877-15.36 15.36-15.36z"></path>
<path fill="none" stroke="#fff" style="stroke: var(--color1, #fff)" stroke-linejoin="round" stroke-linecap="round" stroke-miterlimit="4" stroke-width="2.56" d="M23.040 16h-14.080M23.040 16l-6.034-6.4M23.040 16l-6.034 6.4"></path>
</symbol>
<symbol id="icon-Happy" viewBox="0 0 32 32">
<path stroke-linejoin="round" stroke-linecap="round" stroke-miterlimit="4" stroke-width="1.3333" d="M16 28c6.627 0 12-5.373 12-12s-5.373-12-12-12c-6.627 0-12 5.373-12 12s5.373 12 12 12z"></path>
<path stroke-linejoin="round" stroke-linecap="round" stroke-miterlimit="4" stroke-width="1.3333" d="M12 12h0.013"></path>
<path stroke-linejoin="round" stroke-linecap="round" stroke-miterlimit="4" stroke-width="1.3333" d="M20 12h0.013"></path>
<path stroke-linejoin="round" stroke-linecap="round" stroke-miterlimit="4" stroke-width="1.3333" d="M10.667 17.333c0 1.414 0.562 2.771 1.562 3.771s2.357 1.562 3.771 1.562 2.771-0.562 3.771-1.562c1-1 1.562-2.357 1.562-3.771M21.333 17.333h-10.667z"></path>
</symbol>
<symbol id="icon-Help" viewBox="0 0 32 32">
<path stroke-linejoin="round" stroke-linecap="round" stroke-miterlimit="4" stroke-width="1.3333" d="M16 28c6.627 0 12-5.373 12-12s-5.373-12-12-12c-6.627 0-12 5.373-12 12s5.373 12 12 12z"></path>
<path stroke-linejoin="round" stroke-linecap="round" stroke-miterlimit="4" stroke-width="1.3333" d="M16 22.667v0.013"></path>
<path stroke-linejoin="round" stroke-linecap="round" stroke-miterlimit="4" stroke-width="1.3333" d="M16 18c-0.025-0.433 0.092-0.862 0.333-1.223s0.592-0.634 1.001-0.777c0.501-0.192 0.951-0.497 1.314-0.892s0.63-0.869 0.778-1.384c0.149-0.516 0.176-1.059 0.079-1.586s-0.315-1.026-0.637-1.455c-0.322-0.429-0.739-0.778-1.219-1.019s-1.008-0.367-1.545-0.368c-0.537-0.002-1.066 0.122-1.547 0.36s-0.9 0.584-1.224 1.012"></path>
</symbol>
<symbol id="icon-Map" viewBox="0 0 32 32">
<path stroke-linejoin="round" stroke-linecap="round" stroke-miterlimit="4" stroke-width="1.3333" d="M24 8v0.013"></path>
<path stroke-linejoin="round" stroke-linecap="round" stroke-miterlimit="4" stroke-width="1.3333" d="M24 17.333l-4.667-6.667c-0.449-0.812-0.679-1.727-0.666-2.655s0.267-1.836 0.739-2.636c0.471-0.799 1.143-1.462 1.949-1.922s1.718-0.702 2.646-0.702c0.928 0 1.84 0.242 2.646 0.702s1.477 1.123 1.949 1.922c0.471 0.799 0.726 1.708 0.739 2.636s-0.217 1.843-0.666 2.655l-4.667 6.667z"></path>
<path stroke-linejoin="round" stroke-linecap="round" stroke-miterlimit="4" stroke-width="1.3333" d="M14 6.333l-2-1-8 4v17.333l8-4 8 4 8-4v-2.667"></path>
<path stroke-linejoin="round" stroke-linecap="round" stroke-miterlimit="4" stroke-width="1.3333" d="M12 5.333v17.333"></path>
<path stroke-linejoin="round" stroke-linecap="round" stroke-miterlimit="4" stroke-width="1.3333" d="M20 20v6.667"></path>
</symbol>
<symbol id="icon-Map2" viewBox="0 0 32 32">
<path stroke-linejoin="round" stroke-linecap="round" stroke-miterlimit="4" stroke-width="2.6667" d="M24 8v0.013"></path>
<path stroke-linejoin="round" stroke-linecap="round" stroke-miterlimit="4" stroke-width="2.6667" d="M24 17.333l-4.667-6.667c-0.449-0.812-0.679-1.727-0.666-2.655s0.267-1.836 0.739-2.636c0.471-0.799 1.143-1.462 1.949-1.922s1.718-0.702 2.646-0.702c0.928 0 1.84 0.242 2.646 0.702s1.477 1.123 1.949 1.922c0.471 0.799 0.726 1.708 0.739 2.636s-0.217 1.843-0.666 2.655l-4.667 6.667z"></path>
<path stroke-linejoin="round" stroke-linecap="round" stroke-miterlimit="4" stroke-width="2.6667" d="M14 6.333l-2-1-8 4v17.333l8-4 8 4 8-4v-2.667"></path>
<path stroke-linejoin="round" stroke-linecap="round" stroke-miterlimit="4" stroke-width="2.6667" d="M12 5.333v17.333"></path>
<path stroke-linejoin="round" stroke-linecap="round" stroke-miterlimit="4" stroke-width="2.6667" d="M20 20v6.667"></path>
</symbol>
<symbol id="icon-Open" viewBox="0 0 32 32">
<path stroke-linejoin="round" stroke-linecap="round" stroke-miterlimit="4" stroke-width="2.6667" d="M16 28c6.627 0 12-5.373 12-12s-5.373-12-12-12c-6.627 0-12 5.373-12 12s5.373 12 12 12z"></path>
<path stroke-linejoin="round" stroke-linecap="round" stroke-miterlimit="4" stroke-width="2.6667" d="M20 12l-8 8"></path>
<path stroke-linejoin="round" stroke-linecap="round" stroke-miterlimit="4" stroke-width="2.6667" d="M20 20v-8h-8"></path>
</symbol>
<symbol id="icon-Star-black" viewBox="0 0 32 32">
<path d="M16 0.64c8.483 0 15.36 6.877 15.36 15.36s-6.877 15.36-15.36 15.36c-8.483 0-15.36-6.877-15.36-15.36s6.877-15.36 15.36-15.36z"></path>
<path fill="none" stroke="#fff" style="stroke: var(--color1, #fff)" stroke-linejoin="round" stroke-linecap="round" stroke-miterlimit="4" stroke-width="2.56" d="M16 23.36l-7.9 4.154 1.509-8.797-6.4-6.23 8.832-1.28 3.95-8.004 3.95 8.004 8.832 1.28-6.4 6.23 1.509 8.797-7.882-4.154z"></path>
</symbol>
<symbol id="icon-Star" viewBox="0 0 32 32">
<path stroke-linejoin="round" stroke-linecap="round" stroke-miterlimit="4" stroke-width="1.3333" d="M16 5.333v4M10.667 5.333v8M21.333 5.333v8"></path>
<path stroke-linejoin="round" stroke-linecap="round" stroke-miterlimit="4" stroke-width="1.3333" d="M16 24.667l-4 2 0.667-4.667-2.667-2.667 4-0.667 2-4 2 4 4 0.667-2.667 2.667 0.667 4.667-4-2z"></path>
</symbol>
<symbol id="icon-User" viewBox="0 0 32 32">
<path fill="#a4e4ff" style="fill: var(--color3, #a4e4ff)" d="M16 0c8.837 0 16 7.163 16 16s-7.163 16-16 16c-8.837 0-16-7.163-16-16s7.163-16 16-16z"></path>
<path fill="none" stroke="#09aff4" style="stroke: var(--color4, #09aff4)" stroke-linejoin="round" stroke-linecap="round" stroke-miterlimit="4" stroke-width="1.3333" d="M16 14.667c2.946 0 5.333-2.388 5.333-5.333s-2.388-5.333-5.333-5.333c-2.946 0-5.333 2.388-5.333 5.333s2.388 5.333 5.333 5.333z"></path>
<path fill="none" stroke="#09aff4" style="stroke: var(--color4, #09aff4)" stroke-linejoin="round" stroke-linecap="round" stroke-miterlimit="4" stroke-width="1.3333" d="M8 28v-2.667c0-1.414 0.562-2.771 1.562-3.771s2.357-1.562 3.771-1.562h5.333c1.414 0 2.771 0.562 3.771 1.562s1.562 2.357 1.562 3.771v2.667"></path>
</symbol>
<symbol id="icon-Years" viewBox="0 0 32 32">
<path stroke-linejoin="round" stroke-linecap="round" stroke-miterlimit="4" stroke-width="1.3333" d="M15.727 28h-9.060c-0.707 0-1.386-0.281-1.886-0.781s-0.781-1.178-0.781-1.886v-16c0-0.707 0.281-1.386 0.781-1.886s1.178-0.781 1.886-0.781h16c0.707 0 1.386 0.281 1.886 0.781s0.781 1.178 0.781 1.886v5.333"></path>
<path stroke-linejoin="round" stroke-linecap="round" stroke-miterlimit="4" stroke-width="1.3333" d="M24 29.333c2.946 0 5.333-2.388 5.333-5.333s-2.388-5.333-5.333-5.333c-2.946 0-5.333 2.388-5.333 5.333s2.388 5.333 5.333 5.333z"></path>
<path stroke-linejoin="round" stroke-linecap="round" stroke-miterlimit="4" stroke-width="1.3333" d="M20 4v5.333"></path>
<path stroke-linejoin="round" stroke-linecap="round" stroke-miterlimit="4" stroke-width="1.3333" d="M9.333 4v5.333"></path>
<path stroke-linejoin="round" stroke-linecap="round" stroke-miterlimit="4" stroke-width="1.3333" d="M4 14.667h21.333"></path>
<path stroke-linejoin="round" stroke-linecap="round" stroke-miterlimit="4" stroke-width="1.3333" d="M24 21.995v2.005l1.333 1.333"></path>
</symbol>
<symbol id="icon-up" viewBox="0 0 31 32">
<path d="M15.36 0.64c8.483 0 15.36 6.877 15.36 15.36s-6.877 15.36-15.36 15.36c-8.483 0-15.36-6.877-15.36-15.36s6.877-15.36 15.36-15.36z"></path>
<path fill="none" stroke="#fff" style="stroke: var(--color1, #fff)" stroke-linejoin="round" stroke-linecap="round" stroke-miterlimit="4" stroke-width="2.56" d="M8.96 22.4l12.8-12.8"></path>
<path fill="none" stroke="#fff" style="stroke: var(--color1, #fff)" stroke-linejoin="round" stroke-linecap="round" stroke-miterlimit="4" stroke-width="2.56" d="M21.76 21.12v-11.52h-11.52"></path>
</symbol>
</defs>
</svg>
